<svg viewBox="0 0 62 62" xmlns="http://www.w3.org/2000/svg">
	<path fill="#ff0000" d=" M 24.25 1.23 C 38.40 -2.35 54.21 5.80 59.54 19.36 C 65.59 33.02 59.68 50.40 46.66 57.65 C 34.14 65.33 16.46 62.10 7.40 50.56 C -2.16 39.31 -1.68 21.20 8.46 10.47 C 12.65 5.92 18.20 2.61 24.25 1.23 M 28.30 4.41 C 13.62 5.61 2.04 20.52 4.60 35.05 C 6.29 48.94 20.24 59.73 34.12 57.84 C 48.15 56.65 59.49 42.95 57.96 28.93 C 57.16 14.35 42.79 2.46 28.30 4.41 Z" />
	<path fill="#ff0000" d=" M 16.38 19.06 C 17.29 18.16 18.20 17.25 19.11 16.35 C 23.14 20.37 27.14 24.42 31.20 28.42 C 35.22 24.40 39.23 20.36 43.26 16.35 C 44.17 17.25 45.08 18.16 45.99 19.06 C 42.06 23.07 37.97 26.92 34.12 30.99 C 37.57 35.36 42.16 39.08 45.98 43.26 C 45.07 44.15 44.16 45.04 43.25 45.93 C 39.22 41.91 35.22 37.85 31.16 33.86 C 27.15 37.90 23.13 41.91 19.11 45.94 C 18.20 45.04 17.29 44.14 16.38 43.24 C 20.38 39.18 24.46 35.19 28.46 31.14 C 24.45 27.10 20.40 23.10 16.38 19.06 Z" />
</svg>
