<svg viewBox="0 0 68 68" xmlns="http://www.w3.org/2000/svg">
	<path fill="#3aa11f" d=" M 3.41 21.34 C 7.69 10.87 17.66 2.91 28.89 1.28 C 34.84 0.22 40.91 1.33 46.59 3.15 C 44.86 4.93 43.10 6.69 41.31 8.42 C 32.91 6.13 23.47 8.07 16.88 13.81 C 7.50 21.48 4.67 35.84 10.61 46.43 C 16.20 57.29 29.82 63.17 41.52 59.42 C 52.49 56.28 60.61 45.51 60.54 34.07 C 62.76 34.05 64.98 33.92 67.19 34.02 C 67.13 44.86 61.52 55.46 52.47 61.46 C 40.68 69.73 23.53 68.80 12.70 59.31 C 1.79 50.43 -2.23 34.26 3.41 21.34 Z" />
	<path fill="#3aa11f" d=" M 30.68 37.98 C 40.19 28.48 49.68 18.97 59.19 9.48 C 60.74 11.02 62.29 12.56 63.83 14.11 C 52.78 25.16 41.74 36.21 30.69 47.25 C 25.71 42.29 20.73 37.33 15.78 32.34 C 17.30 30.76 18.89 29.25 20.45 27.72 C 23.84 31.16 27.27 34.56 30.68 37.98 Z" />
</svg>
