<svg viewBox="0 0 61 64" xmlns="http://www.w3.org/2000/svg">
	<path fill="#1b8dee" d=" M 30.32 0.00 L 30.76 0.00 C 32.05 2.14 34.24 3.51 36.29 4.83 C 37.42 5.62 36.81 7.14 35.89 7.81 C 33.93 9.24 32.69 11.61 30.20 12.19 C 30.17 11.34 30.11 9.64 30.08 8.79 C 18.43 8.64 7.63 17.72 5.62 29.16 C 3.76 38.31 7.65 48.24 15.13 53.79 C 22.26 59.31 32.46 60.44 40.63 56.62 C 41.99 56.13 43.41 54.68 44.92 55.60 C 46.63 56.35 46.61 59.12 44.88 59.84 C 39.22 63.05 32.51 64.28 26.08 63.37 C 15.23 61.98 5.58 54.06 2.06 43.72 C -1.48 33.92 0.65 22.37 7.48 14.50 C 13.01 7.98 21.40 4.01 29.95 3.98 C 30.16 2.62 30.28 1.30 30.32 0.00 Z" />
	<path fill="#1b8dee" d=" M 43.43 9.20 C 45.64 6.82 50.71 10.73 48.39 13.37 C 46.21 15.73 41.13 11.88 43.43 9.20 Z" />
	<path fill="#1b8dee" d=" M 50.42 15.37 C 53.13 13.04 57.19 18.21 54.58 20.41 C 51.87 22.42 48.20 17.62 50.42 15.37 Z" />
	<path fill="#1b8dee" d=" M 24.67 19.43 C 23.30 18.60 24.38 16.12 25.64 15.66 C 32.24 18.17 38.99 20.27 45.67 22.56 C 46.19 24.06 45.20 26.23 43.44 26.43 C 42.71 29.16 42.06 33.00 38.61 33.40 C 36.70 34.35 33.25 33.38 32.54 35.85 C 34.04 38.16 36.30 39.95 37.56 42.40 C 38.46 44.81 34.78 47.64 36.87 49.41 C 36.62 50.53 36.54 52.07 35.42 52.68 C 28.70 50.27 21.92 48.02 15.15 45.78 C 14.96 44.74 15.16 43.74 15.72 42.79 C 18.91 41.71 17.45 36.83 20.88 35.89 C 23.04 34.65 27.17 35.80 28.01 33.15 C 26.74 30.82 24.48 29.14 23.15 26.83 C 22.45 24.24 24.68 21.92 24.67 19.43 M 26.61 20.36 C 26.14 22.25 25.28 24.03 24.90 25.95 C 26.53 28.14 28.30 30.25 30.17 32.24 C 29.12 33.54 30.29 34.81 30.98 35.84 L 31.20 33.36 C 33.82 31.85 37.16 32.29 39.79 30.78 C 40.80 29.06 41.21 27.06 41.90 25.20 C 36.81 23.68 31.72 21.26 26.61 20.36 M 21.02 38.04 C 19.82 39.45 19.64 41.44 18.95 43.11 C 23.97 44.87 29.00 46.57 34.04 48.24 C 34.60 46.48 35.47 44.78 35.68 42.93 C 33.45 40.45 31.77 37.10 28.65 35.66 C 26.44 37.27 23.40 36.74 21.02 38.04 Z" />
	<path fill="#1b8dee" d=" M 55.30 23.30 C 58.56 21.61 60.87 27.84 57.87 29.19 C 54.73 30.66 52.51 24.76 55.30 23.30 Z" />
	<path fill="#1b8dee" d=" M 56.42 32.67 C 60.34 30.35 61.79 38.25 57.90 38.69 C 54.72 39.07 54.38 34.18 56.42 32.67 Z" />
	<path fill="#1b8dee" d=" M 54.25 42.03 C 55.69 40.50 58.57 41.92 58.26 44.01 C 57.83 45.82 56.72 48.40 54.40 47.65 C 51.89 46.69 52.86 43.53 54.25 42.03 Z" />
	<path fill="#1b8dee" d=" M 50.49 49.45 C 52.34 48.94 54.30 51.27 53.11 52.93 C 52.20 54.56 49.97 56.50 48.20 54.75 C 46.31 52.83 48.60 50.19 50.49 49.45 Z" />
</svg>
