<svg viewBox="0 0 22 22" xmlns="http://www.w3.org/2000/svg">
	<path fill="#fefefe" opacity="1.00" d=" M 5.78 2.84 C 8.20 -0.52 13.82 -0.52 16.24 2.86 C 17.80 4.57 17.61 6.99 17.61 9.13 C 21.59 11.74 22.30 16.70 21.56 21.07 C 14.53 21.43 7.49 21.35 0.46 21.12 C -0.31 16.74 0.39 11.74 4.39 9.13 C 4.39 6.98 4.20 4.55 5.78 2.84 M 9.25 3.39 C 7.11 4.37 6.25 7.34 7.69 9.24 C 9.23 11.79 13.49 11.45 14.62 8.70 C 16.41 5.53 12.40 1.57 9.25 3.39 M 2.95 19.00 C 8.32 19.00 13.68 19.00 19.05 19.00 C 19.29 16.15 18.82 13.06 16.14 11.47 C 13.34 14.29 8.68 14.35 5.90 11.47 C 3.17 13.03 2.71 16.14 2.95 19.00 Z" />
	<path fill="#a1a1a1" opacity="0.63" d=" M 0.46 21.12 C 7.49 21.35 14.53 21.43 21.56 21.07 L 21.26 22.00 L 0.93 22.00 L 0.46 21.12 Z" />
</svg>
