<svg viewBox="0 0 26 26" xmlns="http://www.w3.org/2000/svg">
	<path fill="#2373ee" opacity="1.00" d=" M 11.57 0.00 L 14.19 0.00 C 20.26 0.62 25.31 5.60 26.00 11.66 L 26.00 14.14 C 25.45 20.22 20.44 25.23 14.42 26.00 L 11.81 26.00 C 5.74 25.39 0.69 20.41 0.00 14.35 L 0.00 11.86 C 0.55 5.78 5.55 0.78 11.57 0.00 M 8.17 7.29 C 10.08 9.21 11.98 11.14 13.90 13.06 C 11.98 14.96 10.08 16.89 8.17 18.80 C 9.10 19.73 10.03 20.67 10.97 21.61 C 13.81 18.76 16.64 15.90 19.49 13.06 C 16.65 10.20 13.82 7.34 10.97 4.49 C 10.03 5.42 9.10 6.36 8.17 7.29 Z" />
</svg>
