<svg viewBox="0 0 7 10" xmlns="http://www.w3.org/2000/svg">
	<path fill="#8c8c8c" opacity="1.00" d=" M 0.00 0.00 L 1.92 0.00 L 0.88 0.52 C 3.13 1.46 4.92 3.14 7.00 4.38 L 7.00 5.23 C 5.01 7.07 2.79 8.66 0.42 10.00 L 0.00 10.00 L 0.00 9.62 C 1.36 7.84 3.09 6.42 4.79 4.99 C 3.12 3.59 1.47 2.16 0.00 0.56 L 0.00 0.00 Z" />
	<path fill="#ffffff" opacity="1.00" d=" M 1.92 0.00 L 7.00 0.00 L 7.00 4.38 C 4.92 3.14 3.13 1.46 0.88 0.52 L 1.92 0.00 Z" />
	<path fill="#ffffff" opacity="1.00" d=" M 0.00 0.56 C 1.47 2.16 3.12 3.59 4.79 4.99 C 3.09 6.42 1.36 7.84 0.00 9.62 L 0.00 0.56 Z" />
	<path fill="#ffffff" opacity="1.00" d=" M 0.42 10.00 C 2.79 8.66 5.01 7.07 7.00 5.23 L 7.00 10.00 L 0.42 10.00 Z" />
</svg>
