<svg viewBox="0 0 13 7" xmlns="http://www.w3.org/2000/svg">
	<path fill="#525252" opacity="0.46" d=" M 0.00 0.00 L 0.60 0.00 C 0.45 0.25 0.15 0.75 0.00 1.00 L 0.00 0.00 Z" />
	<path fill="#525252" opacity="0.46" d=" M 12.00 0.00 L 13.00 0.00 L 13.00 0.57 C 12.75 0.43 12.25 0.14 12.00 0.00 Z" />
	<path fill="#a8a8a8" opacity="0.94" d=" M 0.60 0.00 L 1.40 0.00 C 3.00 1.36 4.58 2.76 6.16 4.15 C 8.29 3.63 9.71 1.25 11.57 0.00 L 12.00 0.00 C 12.25 0.14 12.75 0.43 13.00 0.57 L 13.00 1.60 C 10.91 3.41 8.79 5.19 6.70 7.00 L 6.28 7.00 C 4.21 5.16 2.06 3.42 0.00 1.57 L 0.00 1.00 C 0.15 0.75 0.45 0.25 0.60 0.00 Z" />
</svg>
